<?xml version="1.0" encoding="utf-8"?>
<!-- Generator: Adobe Illustrator 25.0.0, SVG Export Plug-In . SVG Version: 6.00 Build 0)  -->
<svg version="1.1" id="Calque_1" xmlns="http://www.w3.org/2000/svg" xmlns:xlink="http://www.w3.org/1999/xlink" x="0px" y="0px"
	 viewBox="0 0 347.14 320.79" style="enable-background:new 0 0 347.14 320.79;" xml:space="preserve">
<style type="text/css">
	.st0{fill:#F18C0C;}
	.st1{stroke:#F18C0C;stroke-width:21;stroke-miterlimit:10;}
	.st2{fill:#FFFFFF;}
</style>
<path class="st0" d="M157.28,194.05c0.23-6.05,0.61-11.91,1.07-17.82c0.47-5.9,1.03-11.78,1.71-17.66
	c1.35-11.75,3.1-23.49,5.49-35.2c2.4-11.71,5.37-23.41,9.67-34.99c1.08-2.89,2.24-5.78,3.53-8.65c1.28-2.87,2.68-5.72,4.26-8.54
	c3.13-5.63,6.91-11.21,11.99-16.21c2.54-2.49,5.43-4.81,8.72-6.74c3.28-1.93,6.97-3.42,10.81-4.25c1.92-0.42,3.87-0.66,5.8-0.76
	c0.97-0.02,1.91-0.07,2.9-0.03c1,0.06,2,0.14,3,0.22c4,0.5,7.92,1.79,11.37,3.62c3.49,1.82,6.4,4.21,8.93,6.71
	c1.3,1.25,2.4,2.57,3.53,3.89c0.54,0.67,1.03,1.35,1.54,2.02l0.76,1.02l0.69,1.03c3.71,5.51,6.43,11.23,8.69,16.96
	c4.49,11.49,7.3,23.1,9.51,34.71c2.18,11.61,3.68,23.24,4.79,34.86l-12.47,1.51c-1.67-11.25-3.71-22.43-6.36-33.35
	c-2.66-10.9-5.92-21.64-10.36-31.42c-1.1-2.45-2.32-4.79-3.58-7.06c-1.32-2.21-2.64-4.41-4.14-6.32l-0.55-0.74L238,70.18
	c-0.39-0.45-0.76-0.92-1.15-1.36c-0.8-0.82-1.58-1.69-2.41-2.38c-1.64-1.45-3.32-2.66-5.01-3.39c-1.69-0.76-3.36-1.18-5.09-1.31
	c-0.44,0.01-0.88,0-1.32-0.02c-0.45,0-0.95,0.08-1.42,0.1c-0.94,0.11-1.85,0.28-2.74,0.53c-3.52,0.97-6.77,3.19-9.76,6.46
	c-2.98,3.26-5.59,7.42-7.81,11.99c-1.12,2.27-2.14,4.65-3.08,7.1c-0.95,2.44-1.81,4.95-2.61,7.51c-3.2,10.22-5.39,21.07-7.04,32.04
	c-1.65,10.98-2.72,22.14-3.42,33.34c-0.35,5.6-0.59,11.21-0.74,16.83c-0.15,5.6-0.21,11.25-0.13,16.73L157.28,194.05z"/>
<path class="st0" d="M157.77,195.44c0.33-11.42,0.22-22.85-0.22-34.29c-0.45-11.43-1.25-22.82-2.58-34.07
	c-1.35-11.23-3.19-22.37-6.03-32.94c-1.43-5.27-3.11-10.41-5.19-15.12c-2.07-4.7-4.56-9.05-7.43-12.19
	c-1.43-1.56-2.93-2.79-4.43-3.64c-1.51-0.85-3.02-1.36-4.7-1.56c-2.09-0.11-4.2-0.15-6.24,0.27c-2.04,0.43-4.1,0.99-6.07,2.03
	l-0.75,0.35l-0.73,0.43c-0.49,0.29-0.99,0.55-1.48,0.86c-0.95,0.68-1.94,1.28-2.86,2.08c-1.9,1.44-3.66,3.25-5.41,5.08
	c-3.41,3.8-6.47,8.2-9.2,12.9c-5.46,9.42-9.64,19.95-13.02,30.75c-3.37,10.82-5.93,21.99-7.77,33.27l0,0.01
	c-0.54,3.29-3.64,5.52-6.94,4.98c-3.19-0.52-5.38-3.47-5.02-6.64c1.35-11.89,3.44-23.71,6.45-35.4
	c3.04-11.68,6.93-23.27,12.65-34.42c2.88-5.56,6.23-11.02,10.39-16.14c2.15-2.52,4.38-5.03,7.01-7.28c1.25-1.17,2.69-2.21,4.08-3.28
	c0.72-0.52,1.49-0.99,2.23-1.48l1.13-0.73l1.2-0.65c3.14-1.81,6.69-3.12,10.32-4.04l2.77-0.57c0.93-0.16,1.87-0.23,2.8-0.34
	l1.41-0.14c0.47-0.02,0.93-0.02,1.4-0.03c0.94-0.01,1.87-0.02,2.82,0c4.16,0.19,8.38,1.32,12.07,3.15c3.7,1.82,6.86,4.26,9.52,6.87
	c5.31,5.27,8.85,11.14,11.81,16.97c2.94,5.85,5.18,11.78,7.11,17.7c3.82,11.86,6.37,23.77,8.41,35.67
	c2.01,11.91,3.44,23.82,4.5,35.73c1.05,11.91,1.76,23.87,2.01,35.85l0,0.11c0.15,7.18-5.55,13.12-12.73,13.27
	c-7.18,0.15-13.12-5.55-13.27-12.73C157.77,195.88,157.77,195.64,157.77,195.44z"/>
<g>
	<path class="st0" d="M67.67,158.62c-0.2,0-0.4-0.01-0.61-0.03c-3.42-0.33-5.92-3.37-5.59-6.79l7.79-80.42
		c0.6-6.17-1.72-12.14-6.2-15.96c-3.41-2.91-6.87-3.74-10.88-2.61c-3.3,0.93-6.74-1-7.67-4.3c-0.93-3.31,1-6.74,4.3-7.67
		c8.03-2.26,15.74-0.49,22.32,5.12c7.57,6.45,11.49,16.4,10.5,26.62L73.85,153C73.54,156.21,70.83,158.62,67.67,158.62z"/>
</g>
<g>
	<path d="M243.95,217.8c-0.39,0.01-0.79,0.01-1.19,0c-20.9-0.29-38.01-18.22-37.36-39.11c0.63-20.39,17.36-36.73,37.9-36.73
		c8.21,0,15.81,2.61,22.01,7.04c1.89,15.52,2.93,30.26,3.5,41.85C269.51,205.21,258.31,217.56,243.95,217.8z"/>
	<path class="st0" d="M243.3,228.31c-0.22,0-0.45,0-0.67,0c-12.95-0.18-25.1-5.52-34.21-15.05c-9.12-9.54-13.92-21.93-13.52-34.88
		c0.82-26.3,22.07-46.9,48.39-46.9c10.16,0,19.88,3.11,28.12,9l3.76,2.69l0.56,4.59c1.63,13.41,2.83,27.74,3.56,42.6
		c0.48,9.78-3.08,19.49-9.77,26.64c-6.68,7.13-15.7,11.15-25.39,11.32C243.85,228.31,243.58,228.31,243.3,228.31z M243.29,152.47
		c-14.9,0-26.94,11.66-27.4,26.55c-0.23,7.28,2.51,14.28,7.71,19.72c5.19,5.42,12.04,8.47,19.3,8.57c0.28,0,0.57,0,0.86,0h0.01
		c3.96-0.07,7.66-1.73,10.42-4.67c2.87-3.07,4.33-7.06,4.13-11.26c-0.62-12.51-1.57-24.62-2.85-36.07
		C251.71,153.44,247.57,152.47,243.29,152.47z"/>
</g>
<path class="st1" d="M93.85,217.8c0.39,0.01,0.79,0.01,1.19,0c20.9-0.29,38.01-18.22,37.36-39.11
	c-0.63-20.39-17.36-36.73-37.9-36.73c-8.21,0-15.81,2.61-22.01,7.04c-1.89,15.52-2.93,30.26-3.5,41.85
	C68.28,205.21,79.48,217.56,93.85,217.8z"/>
<circle class="st2" cx="100.69" cy="179.89" r="14.31"/>
<circle class="st2" cx="237.1" cy="179.89" r="14.31"/>
<g>
	<path class="st2" d="M37.43,243.77h15.59c3.09,0,5.39,0.13,6.91,0.39c1.52,0.26,2.87,0.79,4.07,1.61c1.2,0.82,2.2,1.9,2.99,3.26
		c0.8,1.36,1.2,2.88,1.2,4.56c0,1.83-0.49,3.5-1.48,5.03c-0.98,1.53-2.32,2.67-4,3.43c2.38,0.69,4.2,1.87,5.48,3.54
		c1.28,1.67,1.92,3.63,1.92,5.88c0,1.77-0.41,3.5-1.24,5.17c-0.83,1.68-1.95,3.02-3.38,4.02c-1.43,1-3.19,1.62-5.28,1.85
		c-1.31,0.14-4.48,0.23-9.5,0.27H37.43V243.77z M45.31,250.26v9.02h5.16c3.07,0,4.98-0.04,5.72-0.13c1.35-0.16,2.41-0.63,3.18-1.4
		c0.77-0.77,1.16-1.79,1.16-3.05c0-1.21-0.33-2.19-1-2.94c-0.67-0.75-1.65-1.21-2.97-1.37c-0.78-0.09-3.02-0.13-6.73-0.13H45.31z
		 M45.31,265.77v10.43h7.29c2.84,0,4.64-0.08,5.4-0.24c1.17-0.21,2.12-0.73,2.86-1.56c0.74-0.82,1.1-1.93,1.1-3.31
		c0-1.17-0.28-2.16-0.85-2.98c-0.57-0.82-1.39-1.41-2.46-1.78c-1.07-0.37-3.4-0.56-6.98-0.56H45.31z"/>
	<path class="st2" d="M74.98,268.25c0-2.48,0.61-4.89,1.84-7.21c1.22-2.32,2.96-4.1,5.2-5.32c2.24-1.22,4.75-1.84,7.52-1.84
		c4.27,0,7.78,1.39,10.51,4.16c2.73,2.78,4.1,6.28,4.1,10.52c0,4.28-1.38,7.82-4.14,10.63s-6.23,4.22-10.42,4.22
		c-2.59,0-5.06-0.59-7.41-1.76c-2.35-1.17-4.14-2.89-5.36-5.15S74.98,271.49,74.98,268.25z M82.64,268.65c0,2.8,0.67,4.95,2,6.44
		s2.97,2.24,4.92,2.24c1.95,0,3.59-0.75,4.91-2.24c1.32-1.49,1.98-3.65,1.98-6.49c0-2.77-0.66-4.9-1.98-6.39
		c-1.32-1.49-2.96-2.24-4.91-2.24c-1.95,0-3.59,0.75-4.92,2.24S82.64,265.84,82.64,268.65z"/>
	<path class="st2" d="M135.91,282.78h-6.94v-4.15c-1.15,1.61-2.51,2.82-4.08,3.61c-1.57,0.79-3.15,1.18-4.75,1.18
		c-3.25,0-6.03-1.31-8.34-3.92c-2.31-2.62-3.47-6.27-3.47-10.95c0-4.79,1.13-8.43,3.38-10.92c2.25-2.49,5.1-3.74,8.54-3.74
		c3.16,0,5.89,1.31,8.2,3.94v-14.05h7.48V282.78z M115.96,268.03c0,3.02,0.42,5.2,1.25,6.55c1.21,1.95,2.89,2.93,5.06,2.93
		c1.72,0,3.18-0.73,4.39-2.2c1.21-1.46,1.81-3.65,1.81-6.56c0-3.25-0.59-5.58-1.76-7.01c-1.17-1.43-2.67-2.14-4.5-2.14
		c-1.77,0-3.26,0.71-4.46,2.12C116.55,263.12,115.96,265.23,115.96,268.03z"/>
	<path class="st2" d="M139.74,254.52h7.96l6.76,20.06l6.6-20.06h7.74l-9.98,27.2l-1.78,4.92c-0.66,1.65-1.28,2.91-1.88,3.78
		c-0.59,0.87-1.28,1.57-2.05,2.12c-0.77,0.54-1.72,0.96-2.85,1.26c-1.13,0.3-2.4,0.45-3.82,0.45c-1.44,0-2.85-0.15-4.23-0.45
		l-0.67-5.85c1.17,0.23,2.23,0.35,3.17,0.35c1.74,0,3.02-0.51,3.86-1.53c0.83-1.02,1.47-2.32,1.92-3.9L139.74,254.52z"/>
	<path class="st2" d="M173.54,282.78v-39.01h11.79l7.08,26.61l7-26.61h11.81v39.01h-7.32v-30.71l-7.74,30.71h-7.58l-7.72-30.71
		v30.71H173.54z"/>
	<path class="st2" d="M224.58,263.14l-6.79-1.22c0.76-2.73,2.08-4.75,3.94-6.07c1.86-1.31,4.63-1.97,8.3-1.97
		c3.33,0,5.82,0.39,7.45,1.18c1.63,0.79,2.78,1.79,3.45,3.01c0.67,1.22,1,3.45,1,6.69l-0.08,8.73c0,2.48,0.12,4.32,0.36,5.5
		c0.24,1.18,0.69,2.44,1.34,3.79h-7.4c-0.2-0.5-0.44-1.23-0.72-2.21c-0.12-0.44-0.21-0.74-0.27-0.88c-1.28,1.24-2.64,2.17-4.1,2.79
		c-1.46,0.62-3.01,0.93-4.66,0.93c-2.91,0-5.2-0.79-6.88-2.37s-2.51-3.57-2.51-5.99c0-1.6,0.38-3.02,1.14-4.27
		c0.76-1.25,1.83-2.21,3.21-2.87s3.36-1.25,5.95-1.74c3.5-0.66,5.92-1.27,7.26-1.84v-0.75c0-1.44-0.36-2.46-1.06-3.07
		c-0.71-0.61-2.05-0.92-4.02-0.92c-1.33,0-2.37,0.26-3.11,0.79C225.64,260.91,225.04,261.83,224.58,263.14z M234.58,269.2
		c-0.96,0.32-2.47,0.7-4.55,1.14c-2.08,0.44-3.43,0.88-4.07,1.3c-0.98,0.69-1.46,1.57-1.46,2.63c0,1.05,0.39,1.95,1.17,2.71
		c0.78,0.76,1.77,1.14,2.98,1.14c1.35,0,2.63-0.44,3.86-1.33c0.9-0.67,1.5-1.5,1.78-2.47c0.2-0.64,0.29-1.85,0.29-3.65V269.2z"/>
	<path class="st2" d="M273.94,262.87l-7.37,1.33c-0.25-1.47-0.81-2.58-1.69-3.33s-2.02-1.12-3.42-1.12c-1.86,0-3.35,0.64-4.46,1.93
		c-1.11,1.29-1.66,3.44-1.66,6.45c0,3.35,0.56,5.72,1.69,7.1c1.13,1.38,2.64,2.08,4.54,2.08c1.42,0,2.58-0.4,3.49-1.21
		c0.91-0.81,1.54-2.2,1.92-4.16l7.34,1.25c-0.76,3.37-2.23,5.92-4.39,7.64c-2.17,1.72-5.07,2.58-8.7,2.58
		c-4.13,0-7.43-1.3-9.89-3.91c-2.46-2.61-3.69-6.22-3.69-10.83c0-4.67,1.23-8.3,3.7-10.9c2.46-2.6,5.8-3.9,10-3.9
		c3.44,0,6.18,0.74,8.21,2.22C271.59,257.58,273.05,259.84,273.94,262.87z"/>
	<path class="st2" d="M276.97,274.71l7.5-1.14c0.32,1.46,0.97,2.56,1.94,3.31s2.34,1.13,4.1,1.13c1.93,0,3.39-0.36,4.36-1.06
		c0.66-0.5,0.98-1.16,0.98-2c0-0.57-0.18-1.04-0.53-1.41c-0.37-0.35-1.21-0.68-2.5-0.98c-6.03-1.33-9.85-2.55-11.47-3.65
		c-2.24-1.53-3.35-3.65-3.35-6.36c0-2.45,0.97-4.5,2.9-6.17c1.93-1.67,4.93-2.5,8.99-2.5c3.87,0,6.74,0.63,8.62,1.89
		c1.88,1.26,3.17,3.12,3.88,5.59l-7.05,1.3c-0.3-1.1-0.87-1.94-1.72-2.53c-0.84-0.59-2.04-0.88-3.61-0.88
		c-1.97,0-3.38,0.27-4.23,0.82c-0.57,0.39-0.85,0.9-0.85,1.52c0,0.53,0.25,0.99,0.75,1.36c0.67,0.5,3,1.2,6.99,2.1
		c3.98,0.9,6.76,2.01,8.34,3.33c1.56,1.33,2.34,3.18,2.34,5.56c0,2.59-1.08,4.82-3.25,6.68c-2.17,1.86-5.37,2.79-9.61,2.79
		c-3.85,0-6.9-0.78-9.14-2.34C279.13,279.51,277.66,277.39,276.97,274.71z"/>
</g>
</svg>
